<?xml version="1.0" standalone="no"?>
<!DOCTYPE svg PUBLIC "-//W3C//DTD SVG 20010904//EN"
 "http://www.w3.org/TR/2001/REC-SVG-20010904/DTD/svg10.dtd">
<svg version="1.0" xmlns="http://www.w3.org/2000/svg"
 width="32.000000pt" height="32.000000pt" viewBox="0 0 32.000000 32.000000"
 preserveAspectRatio="xMidYMid meet">

<g transform="translate(0.000000,32.000000) scale(0.100000,-0.100000)"
fill="#000000" stroke="none">
<path d="M0 160 l0 -160 38 0 c20 0 33 4 27 8 -21 15 -14 31 13 30 15 -1 39 4
52 11 21 10 22 9 6 -1 -10 -7 -27 -20 -38 -28 -18 -14 -17 -15 12 -17 16 -1
30 2 30 7 0 6 5 10 11 10 5 0 7 -5 4 -10 -3 -5 1 -10 10 -10 9 0 14 4 11 9 -3
5 1 14 8 21 16 12 56 -2 56 -20 0 -6 18 -10 40 -10 l40 0 0 160 0 160 -64 0
c-48 0 -65 -4 -70 -15 -3 -8 -10 -15 -17 -15 -6 0 -9 7 -5 15 10 28 -15 15
-27 -14 -10 -22 -16 -27 -32 -20 -17 6 -17 8 -2 8 18 1 25 21 6 21 -5 0 -7 5
-4 10 4 6 -15 10 -49 10 l-56 0 0 -160z m230 109 c0 -11 -4 -18 -10 -14 -5 3
-7 12 -3 20 7 21 13 19 13 -6z m-185 -19 c-10 -11 -13 -20 -7 -20 6 0 13 4 17
9 7 12 65 11 65 -1 0 -4 -6 -8 -12 -8 -8 -1 -6 -6 4 -14 16 -12 16 -14 -6 -35
l-23 -22 4 25 c3 16 1 26 -6 26 -7 0 -9 -4 -6 -10 7 -11 0 -12 -32 -4 -13 4
-23 13 -23 22 0 15 27 52 38 52 3 0 -3 -9 -13 -20z m220 -10 c4 -6 2 -16 -4
-23 -7 -9 -4 -16 10 -26 14 -8 19 -19 16 -32 -3 -10 -1 -19 5 -19 12 0 6 -21
-7 -23 -5 -1 -10 9 -10 23 0 30 -34 73 -52 66 -18 -7 -16 4 4 26 18 20 29 23
38 8z m35 -15 c0 -8 -2 -15 -4 -15 -2 0 -6 7 -10 15 -3 8 -1 15 4 15 6 0 10
-7 10 -15z m-220 -146 c11 -8 12 -12 3 -16 -23 -9 -26 -8 -29 10 -3 19 4 21
26 6z m190 1 c0 -5 -5 -10 -11 -10 -5 0 -7 5 -4 10 3 6 8 10 11 10 2 0 4 -4 4
-10z"/>
</g>
</svg>
